<svg width="70" height="30" viewBox="0 0 70 30" fill="none" xmlns="http://www.w3.org/2000/svg">
<g filter="url(#filter0_i_98_28)">
<rect y="3" width="24" height="24" rx="9.6" fill="#FDDAD5"/>
<path d="M7.00938 20.5V8.66289H8.48594V13.7816H14.9828V8.66289H16.4594V20.5H14.9828V15.1105H8.48594V20.5H7.00938Z" fill="#F58E7E"/>
</g>
<path d="M28.1523 23.5L31.7852 6.4375H34.3164L30.6836 23.5H28.1523ZM37.7097 21.625C38.2566 21.625 38.7644 21.5195 39.2331 21.3086C39.7019 21.0977 40.1003 20.8047 40.4284 20.4297C40.7644 20.0547 40.9831 19.625 41.0847 19.1406L41.3777 17.8984L38.2839 18.0391C37.4167 18.0781 36.7409 18.2656 36.2566 18.6016C35.78 18.9375 35.5417 19.3867 35.5417 19.9492C35.5417 20.457 35.7409 20.8633 36.1394 21.168C36.5456 21.4727 37.0691 21.625 37.7097 21.625ZM36.8542 23.7109C36.1511 23.7109 35.5105 23.5625 34.9323 23.2656C34.3542 22.9688 33.8933 22.5625 33.5495 22.0469C33.2136 21.5312 33.0456 20.9414 33.0456 20.2773C33.0456 19.0352 33.5066 18.0625 34.4284 17.3594C35.3503 16.6562 36.6277 16.2695 38.2605 16.1992L41.7527 16.0469L41.9167 15.2734C41.9402 15.1719 41.9519 15.0781 41.9519 14.9922C41.9597 14.9062 41.9636 14.8203 41.9636 14.7344C41.9636 14.1953 41.7605 13.7695 41.3542 13.457C40.9558 13.1445 40.3894 12.9883 39.655 12.9883C39.1628 12.9883 38.7331 13.0586 38.3659 13.1992C37.9987 13.3398 37.7019 13.5352 37.4753 13.7852C37.2487 14.0273 37.0886 14.3203 36.9948 14.6641H34.487C34.6277 13.8984 34.9362 13.2305 35.4128 12.6602C35.8972 12.082 36.5144 11.6328 37.2644 11.3125C38.0222 10.9844 38.8816 10.8203 39.8425 10.8203C40.7722 10.8203 41.5808 10.9727 42.2683 11.2773C42.9636 11.582 43.5027 12.0039 43.8855 12.543C44.2761 13.082 44.4714 13.7109 44.4714 14.4297C44.4714 14.6094 44.4597 14.7891 44.4362 14.9688C44.4206 15.1484 44.4011 15.3125 44.3777 15.4609L42.6667 23.5H40.2527L40.5691 21.9766H40.4987C40.2331 22.3281 39.9128 22.6367 39.5378 22.9023C39.1628 23.1602 38.7487 23.3594 38.2956 23.5C37.8503 23.6406 37.3698 23.7109 36.8542 23.7109ZM51.6147 23.7109C50.9819 23.7109 50.392 23.5977 49.8452 23.3711C49.3061 23.1367 48.8412 22.8203 48.4506 22.4219C48.0678 22.0234 47.8061 21.5664 47.6655 21.0508H47.5717L47.0561 23.5H44.6537L48.2866 6.4375H50.7827L49.3998 12.9297C49.4155 12.9297 49.4272 12.9297 49.435 12.9297C49.4506 12.9297 49.4662 12.9297 49.4819 12.9297C49.8491 12.3047 50.3686 11.8047 51.0405 11.4297C51.7202 11.0469 52.4584 10.8555 53.2553 10.8555C54.1616 10.8555 54.9506 11.0625 55.6225 11.4766C56.3022 11.8906 56.8295 12.4844 57.2045 13.2578C57.5795 14.0312 57.767 14.957 57.767 16.0352C57.767 17.0508 57.6225 18.0195 57.3334 18.9414C57.0444 19.8633 56.6303 20.6836 56.0912 21.4023C55.5522 22.1133 54.9037 22.6758 54.1459 23.0898C53.3881 23.5039 52.5444 23.7109 51.6147 23.7109ZM51.3452 21.4492C51.9155 21.4492 52.4389 21.3164 52.9155 21.0508C53.392 20.7852 53.8022 20.418 54.1459 19.9492C54.4897 19.4727 54.7514 18.9219 54.9311 18.2969C55.1186 17.6719 55.2123 17.0039 55.2123 16.293C55.2123 15.2852 54.9662 14.4961 54.4741 13.9258C53.9897 13.3555 53.3061 13.0703 52.4233 13.0703C51.8373 13.0703 51.2983 13.207 50.8061 13.4805C50.3139 13.7539 49.8881 14.1328 49.5287 14.6172C49.1694 15.1016 48.8881 15.6602 48.685 16.293C48.4897 16.9258 48.392 17.6016 48.392 18.3203C48.392 19.25 48.6616 20.0039 49.2006 20.582C49.7475 21.1602 50.4623 21.4492 51.3452 21.4492ZM59.4845 14.6523C59.4845 13.9023 59.6838 13.2422 60.0822 12.6719C60.4884 12.0938 61.0509 11.6445 61.7697 11.3242C62.4963 10.9961 63.3361 10.832 64.2892 10.832C65.2189 10.832 66.0353 10.9961 66.7384 11.3242C67.4494 11.6445 68.008 12.0938 68.4142 12.6719C68.8205 13.2422 69.0353 13.9023 69.0588 14.6523H66.7033C66.672 14.293 66.547 13.9766 66.3283 13.7031C66.1095 13.4297 65.8205 13.2188 65.4611 13.0703C65.1095 12.9141 64.7111 12.8359 64.2658 12.8359C63.7892 12.8359 63.3752 12.9023 63.0236 13.0352C62.6798 13.168 62.4103 13.3555 62.215 13.5977C62.0275 13.832 61.9338 14.1055 61.9338 14.418C61.9338 14.7852 62.0744 15.0898 62.3556 15.332C62.6447 15.5742 63.1369 15.8047 63.8322 16.0234L65.0978 16.4453C66.2072 16.7969 67.0041 17.2344 67.4884 17.7578C67.9728 18.2734 68.215 18.9453 68.215 19.7734C68.215 20.5391 67.9963 21.2227 67.5588 21.8242C67.1291 22.418 66.5353 22.8867 65.7775 23.2305C65.0275 23.5742 64.1603 23.7461 63.1759 23.7461C62.1681 23.7461 61.2853 23.5781 60.5275 23.2422C59.7697 22.8984 59.172 22.4336 58.7345 21.8477C58.297 21.2539 58.0666 20.5781 58.0431 19.8203H60.5041C60.5978 20.375 60.883 20.832 61.3595 21.1914C61.8439 21.5508 62.4806 21.7305 63.2697 21.7305C63.7384 21.7305 64.1564 21.6562 64.5236 21.5078C64.8908 21.3516 65.1759 21.1445 65.3791 20.8867C65.59 20.6211 65.6955 20.3242 65.6955 19.9961C65.6955 19.6523 65.5705 19.375 65.3205 19.1641C65.0705 18.9453 64.5939 18.7266 63.8908 18.5078L62.6486 18.1094C61.547 17.75 60.7423 17.2969 60.2345 16.75C59.7345 16.2031 59.4845 15.5039 59.4845 14.6523Z" fill="#F58E7E"/>
<defs>
<filter id="filter0_i_98_28" x="0" y="3" width="24" height="24" filterUnits="userSpaceOnUse" color-interpolation-filters="sRGB">
<feFlood flood-opacity="0" result="BackgroundImageFix"/>
<feBlend mode="normal" in="SourceGraphic" in2="BackgroundImageFix" result="shape"/>
<feColorMatrix in="SourceAlpha" type="matrix" values="0 0 0 0 0 0 0 0 0 0 0 0 0 0 0 0 0 0 127 0" result="hardAlpha"/>
<feOffset/>
<feGaussianBlur stdDeviation="2.4"/>
<feComposite in2="hardAlpha" operator="arithmetic" k2="-1" k3="1"/>
<feColorMatrix type="matrix" values="0 0 0 0 0.99165 0 0 0 0 0.647287 0 0 0 0 0.578414 0 0 0 1 0"/>
<feBlend mode="normal" in2="shape" result="effect1_innerShadow_98_28"/>
</filter>
</defs>
</svg>
