<svg width="216" height="79" viewBox="0 0 216 79" fill="none" xmlns="http://www.w3.org/2000/svg">
<path d="M113.819 52.4704H135.689L174 14.3074M129.581 38.3667L154.295 13.4999M155.3 51.6408L176.306 30.0704H209.226M209.226 30.0704C209.226 28.696 210.34 27.5815 211.715 27.5815C213.089 27.5815 214.204 28.696 214.204 30.0704C214.204 31.4448 213.089 32.5593 211.715 32.5593C210.34 32.5593 209.226 31.4448 209.226 30.0704ZM203 63.5003C203 62.1259 204.114 61.0114 205.489 61.0114C206.863 61.0114 207.978 62.1259 207.978 63.5003C207.978 64.8747 206.863 65.9892 205.489 65.9892C204.114 65.9892 203 64.8747 203 63.5003ZM203 63.5003H166.479L152.841 49.8623M6.97777 18.9778L24.178 35.6827H53.6724L70.5 52.5104M17.5 5.5L32.1269 20.4127H61.6213L86.5919 45.3833M21.2735 70.9999H81.0843L100.5 51.5846V37.9314L73 10.9999M79.5001 37.4999L88.2015 46.2014L124.5 46.2016L150.994 73.4999M156.959 51.6408C156.959 50.2664 155.845 49.1519 154.47 49.1519C153.096 49.1519 151.981 50.2664 151.981 51.6408C151.981 53.0152 153.096 54.1296 154.47 54.1296C155.845 54.1296 156.959 53.0152 156.959 51.6408ZM115.478 53.3C115.478 51.9256 114.363 50.8111 112.989 50.8111C111.614 50.8111 110.5 51.9256 110.5 53.3C110.5 54.6744 111.614 55.7889 112.989 55.7889C114.363 55.7889 115.478 54.6744 115.478 53.3ZM132.07 37.5371C132.07 36.1627 130.956 35.0482 129.581 35.0482C128.207 35.0482 127.093 36.1627 127.093 37.5371C127.093 38.9115 128.207 40.026 129.581 40.026C130.956 40.026 132.07 38.9115 132.07 37.5371ZM158.619 11.8185C158.619 10.4441 157.504 9.32965 156.13 9.32965C154.755 9.32965 153.641 10.4441 153.641 11.8185C153.641 13.1929 154.755 14.3074 156.13 14.3074C157.504 14.3074 158.619 13.1929 158.619 11.8185ZM155.478 74.9888C155.478 73.6144 154.363 72.4999 152.989 72.4999C151.614 72.4999 150.5 73.6144 150.5 74.9888C150.5 76.3632 151.614 77.4777 152.989 77.4777C154.363 77.4777 155.478 76.3632 155.478 74.9888ZM177.7 12.6482C177.7 11.2738 176.586 10.1593 175.211 10.1593C173.837 10.1593 172.722 11.2738 172.722 12.6482C172.722 14.0226 173.837 15.1371 175.211 15.1371C176.586 15.1371 177.7 14.0226 177.7 12.6482ZM73.4778 8.98882C73.4778 7.61442 72.3633 6.49994 70.9889 6.49994C69.6145 6.49994 68.5 7.61442 68.5 8.98882C68.5 10.3632 69.6145 11.4777 70.9889 11.4777C72.3633 11.4777 73.4778 10.3632 73.4778 8.98882ZM18.9778 4.48889C18.9778 3.11448 17.8633 2 16.4889 2C15.1145 2 14 3.11448 14 4.48889C14 5.86329 15.1145 6.97778 16.4889 6.97778C17.8633 6.97778 18.9778 5.86329 18.9778 4.48889ZM6.97777 16.4889C6.97777 15.1145 5.86329 14 4.48888 14C3.11448 14 1.99999 15.1145 1.99999 16.4889C1.99999 17.8633 3.11448 18.9778 4.48888 18.9778C5.86329 18.9778 6.97777 17.8633 6.97777 16.4889ZM21.4778 71.9888C21.4778 70.6144 20.3633 69.4999 18.9889 69.4999C17.6145 69.4999 16.5 70.6144 16.5 71.9888C16.5 73.3632 17.6145 74.4777 18.9889 74.4777C20.3633 74.4777 21.4778 73.3632 21.4778 71.9888Z" stroke="url(#paint0_radial_50_267)" stroke-width="2.21235" stroke-miterlimit="10"/>
<defs>
<radialGradient id="paint0_radial_50_267" cx="0" cy="0" r="1" gradientUnits="userSpaceOnUse" gradientTransform="translate(101.352 32.9889) rotate(90) scale(44.4889 112.852)">
<stop offset="0.27" stop-color="white"/>
<stop offset="0.58" stop-color="#FFD9D2"/>
<stop offset="1" stop-color="#FFD9D2"/>
</radialGradient>
</defs>
</svg>
